PathFileType	4	(X/Y/Z)	C:/Users/opensim2020/Desktop/walking_exp_matlab/subject02_walking09_straight_04.trc																																																																																																																												
DataRate	CameraRate	NumFrames	NumMarkers	Units	OrigDataRate	OrigDataStartFrame	OrigNumFrames																																																																																																																								
100	100	4	42	mm	100	3113	285																																																																																																																								
Frame#	Time	LFHD			RFHD			LBHD			RBHD			C7			T10			CLAV			STRN			RBAK			LSHO			LUPA			LELB			LFRM			LWRA			LWRB			LFIN			RSHO			RUPA			RELB			RFRM			RWRA			RWRB			RFIN			LASI			RASI			LPSI			RPSI			LTHI			LKNE			LTIB			LANK			LHEE			LTOE			RTHI			RKNE			RTIB			RANK			RHEE			RTOE			*39			*40			*41		
		X1	Y1	Z1	X2	Y2	Z2	X3	Y3	Z3	X4	Y4	Z4	X5	Y5	Z5	X6	Y6	Z6	X7	Y7	Z7	X8	Y8	Z8	X9	Y9	Z9	X10	Y10	Z10	X11	Y11	Z11	X12	Y12	Z12	X13	Y13	Z13	X14	Y14	Z14	X15	Y15	Z15	X16	Y16	Z16	X17	Y17	Z17	X18	Y18	Z18	X19	Y19	Z19	X20	Y20	Z20	X21	Y21	Z21	X22	Y22	Z22	X23	Y23	Z23	X24	Y24	Z24	X25	Y25	Z25	X26	Y26	Z26	X27	Y27	Z27	X28	Y28	Z28	X29	Y29	Z29	X30	Y30	Z30	X31	Y31	Z31	X32	Y32	Z32	X33	Y33	Z33	X34	Y34	Z34	X35	Y35	Z35	X36	Y36	Z36	X37	Y37	Z37	X38	Y38	Z38	X39	Y39	Z39	X40	Y40	Z40	X41	Y41	Z41	X42	Y42	Z42
																																																																																																																															
107	1.06	-144.6676	1747.51392	-1545.08484	-154.26041	1731.78845	-1402.16479	-269.98999	1665.37378	-1560.13379	-291.52469	1648.68213	-1419.21399	-325.08099	1526.85022	-1487.36328	-375.13663	1251.23376	-1487.77612	-186.11139	1460.34839	-1490.27856	-131.60011	1289.34827	-1478.55994	-384.00455	1351.39294	-1428.1355	-240.41296	1501.89148	-1663.26575	-212.47008	1306.29102	-1756.32861	-179.41162	1170.15784	-1777.92932	-124.99109	1048.74084	-1786.21375	-38.31435	948.42139	-1741.20093	-75.1362	936.46942	-1782.92859	-32.62278	885.72455	-1783.30994	-256.63495	1493.79407	-1296.67261	-296.3215	1301.15149	-1219.96521	-288.06979	1153.70801	-1211.61768	-266.64658	1035.29846	-1195.54688	-224.79167	906.5379	-1216.96594	-272.69537	905.06726	-1185.97412	-238.89137	840.125	-1184.69971	-137.67461	993.81769	-1613.39026	-149.32576	980.263	-1359.18799	-349.51834	1034.61804	-1542.54321	-360.23328	1032.09619	-1427.97168	-205.94926	679.38269	-1658.50513	-252.25624	479.12146	-1626.13879	-318.0748	294.21326	-1621.82837	-325.57629	72.28432	-1577.6897	-361.1452	45.66251	-1525.64954	-170.46599	33.84547	-1595.00024	-179.90479	681.51038	-1269.25	-138.15163	483.90994	-1280.27917	-246.9563	333.98016	-1287.3186	-331.52579	162.73557	-1325.67053	-366.35699	116.38623	-1391.31519	-228.4053	56.78836	-1269.62427	-256.09003	1809.52698	-1464.26257	-2845.1499	1034.23938	3360.36475	NaN	NaN	NaN
108	1.07	-135.63457	1747.36353	-1544.90552	-145.57172	1731.03381	-1401.83582	-261.01538	1665.58887	-1560.44458	-283.13589	1648.43408	-1419.66357	-316.62894	1526.80115	-1488.38037	-367.43515	1251.38696	-1488.60669	-177.86363	1459.84692	-1490.64612	-123.80174	1288.8988	-1479.37793	-376.07141	1351.40979	-1429.35901	-231.5424	1502.04065	-1663.96265	-203.08476	1307.15295	-1757.82556	-168.87212	1171.06836	-1779.81226	-112.95024	1050.28125	-1787.82849	-24.93937	951.01532	-1742.31763	-61.61817	938.68927	-1784.30017	-18.28586	888.64636	-1784.70032	-249.0591	1493.30945	-1297.43494	-290.26031	1301.14001	-1220.99561	-283.23264	1153.53809	-1212.47998	-262.08881	1034.92603	-1195.96094	-220.74971	906.13892	-1217.37915	-268.64511	904.70605	-1186.65088	-235.35759	839.76123	-1185.33105	-129.2998	992.84003	-1614.54773	-141.91594	980.30652	-1359.87805	-342.39005	1034.48425	-1542.71094	-353.022	1032.52893	-1428.1637	-200.92442	678.8255	-1658.29773	-248.77443	478.83002	-1625.89868	-316.31445	294.56226	-1621.71069	-325.42194	72.62791	-1577.60388	-361.0596	46.09749	-1525.54541	-170.366	33.79567	-1595.04712	-170.38429	682.1084	-1269.71069	-125.38199	484.53671	-1281.52441	-228.55104	330.24387	-1287.71545	-306.45786	155.53773	-1325.14014	-339.82239	107.48859	-1390.46008	-198.26643	54.74218	-1270.07043	-247.00571	1809.32166	-1463.98193	-2845.13184	1034.16455	3360.22559	NaN	NaN	NaN
109	1.08	-126.28419	1746.94092	-1544.16504	-137.00697	1730.3905	-1401.61841	-252.00902	1665.71375	-1560.71313	-274.65921	1648.05408	-1420.03271	-308.21024	1526.7356	-1489.2887	-359.65649	1251.40515	-1489.31018	-169.44386	1459.69482	-1491.30469	-115.91273	1288.39746	-1480.1803	-368.63895	1351.37524	-1430.7561	-222.77367	1502.07019	-1664.48926	-193.42802	1307.71545	-1758.92871	-158.47751	1171.86731	-1781.4801	-101.13903	1051.71362	-1789.32642	-12.1335	953.82001	-1743.75952	-48.48723	940.73065	-1785.55054	-4.25756	891.1261	-1785.40259	-241.8754	1492.81824	-1298.39221	-284.90823	1300.92664	-1222.43506	-278.22684	1153.30713	-1213.20728	-257.92706	1034.37695	-1196.80835	-216.39262	905.54047	-1217.55286	-264.65283	904.38226	-1187.41333	-231.35565	839.2901	-1185.8468	-122.00791	991.52405	-1615.41199	-134.5813	980.1449	-1360.35107	-335.23944	1034.30286	-1542.75415	-345.88556	1032.76965	-1428.31165	-196.05594	678.17072	-1657.98694	-245.30792	478.53879	-1625.64502	-314.14426	294.76489	-1621.44006	-325.15515	72.89986	-1577.50574	-360.97516	46.55614	-1525.41211	-170.29329	33.71473	-1595.11621	-161.06219	682.6593	-1270.17554	-113.04994	484.96246	-1282.71008	-210.26869	326.46887	-1287.94836	-281.2818	148.76698	-1324.66455	-313.04126	98.76926	-1389.22156	-168.28485	52.57458	-1270.35864	-237.95303	1809.23706	-1463.70471	-2845.86938	1034.19653	3357.31396	NaN	NaN	NaN
110	1.09	-117.25262	1746.6571	-1543.74353	-128.41888	1729.29761	-1400.82214	-243.00595	1665.73938	-1560.82153	-266.34006	1647.70447	-1420.33948	-299.79095	1526.63074	-1489.96106	-351.84427	1251.34497	-1489.83789	-161.4691	1459.17212	-1491.77637	-107.9434	1287.66174	-1480.71558	-360.47623	1351.07434	-1431.55188	-214.04277	1502.13989	-1665.02246	-183.95547	1308.20422	-1759.81958	-148.2309	1172.60986	-1782.95752	-89.56835	1052.9895	-1790.65625	0.60785	956.07013	-1744.67603	-35.60175	942.64368	-1786.70117	9.08459	893.77649	-1786.72791	-234.48491	1492.20483	-1299.0282	-278.60516	1300.47583	-1223.12952	-273.06427	1153.00024	-1213.83862	-253.66562	1033.88086	-1197.36255	-212.00058	905.20544	-1218.02649	-260.51126	904.05756	-1188.28137	-227.36583	838.7926	-1186.32813	-115.03626	989.98718	-1616.07141	-127.01952	980.01782	-1360.51929	-328.11801	1034.14624	-1542.76099	-338.77206	1032.76599	-1428.34863	-191.32051	677.59479	-1657.79932	-241.88272	478.2829	-1625.42139	-312.27921	295.1514	-1621.40076	-324.92249	73.20728	-1577.44495	-361.08456	47.21492	-1525.34082	-170.25093	33.65833	-1595.22693	-151.86034	682.93542	-1270.75684	-101.0663	485.25845	-1283.95142	-191.97308	322.69345	-1288.04138	-255.92029	141.92332	-1323.96204	-286.32883	90.75371	-1388.48132	-138.17915	51.12472	-1270.69629	-228.88437	1808.69824	-1463.21191	-2845.15625	1034.06958	3360.24512	NaN	NaN	NaN
